<?xml version="1.0" encoding="UTF-8" standalone="no"?>
<svg
   version="1.1"
   id="Layer_1"
   x="0px"
   y="0px"
   viewBox="0 0 25.5 25.5"
   enable-background="new 0 0 32 32"
   xml:space="preserve"
   sodipodi:docname="pps.svg"
   width="25.5"
   height="25.5"
   inkscape:version="1.1.1 (3bf5ae0d25, 2021-09-20)"
   inkscape:export-filename="C:\Users\yblanken\Pictures\icons\PPS2\pps24.png"
   inkscape:export-xdpi="90.352943"
   inkscape:export-ydpi="90.352943"
   xmlns:inkscape="http://www.inkscape.org/namespaces/inkscape"
   xmlns:sodipodi="http://sodipodi.sourceforge.net/DTD/sodipodi-0.dtd"
   xmlns="http://www.w3.org/2000/svg"
   xmlns:svg="http://www.w3.org/2000/svg"><defs
   id="defs3492" /><sodipodi:namedview
   id="namedview3490"
   pagecolor="#ffffff"
   bordercolor="#666666"
   borderopacity="1.0"
   inkscape:pageshadow="2"
   inkscape:pageopacity="0.0"
   inkscape:pagecheckerboard="0"
   showgrid="false"
   width="32px"
   inkscape:zoom="24.46875"
   inkscape:cx="8.5210728"
   inkscape:cy="12.485313"
   inkscape:window-width="1920"
   inkscape:window-height="1001"
   inkscape:window-x="-9"
   inkscape:window-y="-9"
   inkscape:window-maximized="1"
   inkscape:current-layer="Layer_1" />
<path
   id="path5005"
   style="color:#000000;fill:#000000;stroke:#ffffff;stroke-miterlimit:10;stroke-opacity:1;-inkscape-stroke:none"
   d="M 0.5,0.78607915 V 24.786076 h 3 v -4.5 h 1.34375 c 0.5674974,1.176714 1.7759716,2 3.15625,2 1.380279,0 2.588753,-0.823286 3.15625,-2 H 25 v -3 H 11.15625 c -0.567497,-1.176714 -1.775971,-2 -3.15625,-2 -1.3802784,0 -2.5887526,0.823286 -3.15625,2 H 3.5 v -3 h 13.34375 c 0.567497,1.176714 1.775971,2 3.15625,2 1.380279,0 2.588753,-0.823286 3.15625,-2 H 25 v -3 H 23.15625 C 22.588753,10.109364 21.380279,9.2860795 20,9.2860795 c -1.380279,0 -2.588753,0.8232845 -3.15625,1.9999965 H 3.5 V 8.2860795 h 6.34375 c 0.567497,1.176714 1.775971,1.9999965 3.15625,1.9999965 1.380279,0 2.588753,-0.8232825 3.15625,-1.9999965 H 25 v -3 h -8.84375 c -0.567497,-1.1767144 -1.775971,-2 -3.15625,-2 -1.380279,0 -2.588753,0.8232856 -3.15625,2 H 3.5 V 0.78607915 Z M 13,6.2860795 c 0.293909,0 0.5,0.206091 0.5,0.5 0,0.293909 -0.206091,0.5 -0.5,0.5 -0.293909,0 -0.5,-0.206091 -0.5,-0.5 0,-0.293909 0.206091,-0.5 0.5,-0.5 z m 7,5.9999965 c 0.293909,0 0.5,0.206091 0.5,0.5 0,0.293909 -0.206091,0.5 -0.5,0.5 -0.293909,0 -0.5,-0.206091 -0.5,-0.5 0,-0.293909 0.206091,-0.5 0.5,-0.5 z m -12,6 c 0.293909,0 0.5,0.206091 0.5,0.5 0,0.293909 -0.206091,0.5 -0.5,0.5 -0.293909,0 -0.5,-0.206091 -0.5,-0.5 0,-0.293909 0.206091,-0.5 0.5,-0.5 z" />









<path
   id="path4712"
   style="color:#000000;display:inline;fill:#0000ff;fill-opacity:1;stroke:#ffffff;stroke-width:0.5;stroke-miterlimit:10;stroke-dasharray:none;stroke-opacity:1"
   d="m 20,9.5360795 c -1.780118,0 -3.25,1.4698785 -3.25,3.2499965 0,0.311876 0.04491,0.613796 0.128906,0.900391 L 9.201172,15.770451 C 8.828744,15.619994 8.423031,15.536076 8,15.536076 c -1.7801179,0 -3.25,1.469882 -3.25,3.25 0,1.780118 1.4698821,3.25 3.25,3.25 1.780118,0 3.25,-1.469882 3.25,-3.25 0,-0.326691 -0.04878,-0.642781 -0.140625,-0.941406 l 7.621094,-2.070313 c 0.390752,0.168254 0.820766,0.261719 1.269531,0.261719 1.780118,0 3.25,-1.469882 3.25,-3.25 0,-1.780118 -1.469882,-3.2499965 -3.25,-3.2499965 z m 0,2.4999965 c 0.429019,0 0.75,0.320981 0.75,0.75 0,0.429019 -0.320981,0.75 -0.75,0.75 -0.429019,0 -0.75,-0.320981 -0.75,-0.75 0,-0.429019 0.320981,-0.75 0.75,-0.75 z m -12,6 c 0.429019,0 0.75,0.320981 0.75,0.75 0,0.429019 -0.320981,0.75 -0.75,0.75 -0.429019,0 -0.75,-0.320981 -0.75,-0.75 0,-0.429019 0.320981,-0.75 0.75,-0.75 z" /></svg>
